<svg xmlns="http://www.w3.org/2000/svg" xmlns:xlink="http://www.w3.org/1999/xlink" width="45" height="44" viewBox="0 0 45 44"><defs><path id="pth5a" d="M407.52 664.52h-5.4a.36.36 0 0 1-.35-.36v-14.3c0-.18.17-.35.36-.35h5.39c.2 0 .36.17.36.36v14.3c0 .18-.17.35-.36.35z"/><path id="pth5b" d="M427.15 669.27a.84.84 0 0 0-1.55-.61 4.27 4.27 0 0 1-3.94 2.69h-17.42a.85.85 0 0 0-.58.23l-7.96 7.61v-7.02c0-.22-.09-.43-.25-.58a.84.84 0 0 0-.58-.25h-3.97a4.24 4.24 0 0 1-4.24-4.24v-18.76c0-2.34 1.9-4.24 4.24-4.24h18.87c.46 0 .84-.37.84-.83a.84.84 0 0 0-.84-.84H390.9a5.9 5.9 0 0 0-5.9 5.9v18.77a5.9 5.9 0 0 0 5.9 5.9h3.14v8.14a.83.83 0 0 0 1.41.6l9.12-8.74h17.1c2.4.01 4.6-1.5 5.48-3.73z"/><path id="pth5c" d="M428.34 662.09c-.32 2.54-2.1 4-4.88 4h-12.29a4.1 4.1 0 0 1-2.9-1.2c-.3.28-.68.46-1.11.46h-4.67c-.85 0-1.55-.7-1.55-1.55v-13.57c0-.86.7-1.55 1.55-1.55h4.67c.55 0 1.03.28 1.3.7l.06-.01c.18-.06 4.7-1.38 4.7-5.25v-5.02c0-.36.22-.68.57-.8.1-.02 2.53-.77 4.3.54 1.12.82 1.69 2.21 1.69 4.14v4.36h6.09a4.1 4.1 0 0 1 4.03 4.8zm-21.3-11.74h-4.43v13.34h4.44zm20.26-.88a2.4 2.4 0 0 0-1.42-.46h-6.93a.84.84 0 0 1-.83-.84v-5.19c0-1.37-.33-2.3-1-2.8-.7-.5-1.64-.49-2.25-.4v4.34c0 5.14-5.67 6.79-5.91 6.85-.08.03-.17.03-.25.03v10.98c0 1.36 1.1 2.46 2.46 2.46h12.3c1.92 0 3-.86 3.22-2.56v-.03l1.57-9.98a2.5 2.5 0 0 0-.96-2.4z"/></defs><g><g transform="translate(-385 -638)"><use fill="#fff" xlink:href="#pth5a"/></g><g transform="translate(-385 -638)"><use fill="#2196f3" xlink:href="#pth5b"/></g><g transform="translate(-385 -638)"><use fill="#2196f3" xlink:href="#pth5c"/></g></g></svg>